<?xml version="1.0" encoding="UTF-8" standalone="no"?>
<svg width="299px" height="266px" viewBox="0 0 299 266" version="1.1" xmlns="http://www.w3.org/2000/svg" xmlns:xlink="http://www.w3.org/1999/xlink">
    <!-- Generator: Sketch 39.1 (31720) - http://www.bohemiancoding.com/sketch -->
    <title>tomato</title>
    <desc>Created with Sketch.</desc>
    <defs></defs>
    <g id="Page-1" stroke="none" stroke-width="1" fill="none" fill-rule="evenodd">
        <g id="tomato">
            <path d="M215.2,61.55 C209.333,61.017 200.733,62.217 189.4,65.15 C179.366,67.683 174.15,69.367 173.75,70.2 C159.717,68.533 141.7,66.916 119.7,65.35 C119.033,65.35 118.35,65.367 117.65,65.4 C116.283,64.3 114.334,63.133 111.8,61.9 C107.967,60.267 105.267,59.05 103.7,58.25 C97,56.217 91.483,54.667 87.15,53.6 C78.917,51.567 74.8,51.666 74.8,53.9 C74.8,54.4 77.45,55.2 82.75,56.3 C90.983,57.967 97.35,59.417 101.85,60.65 C102.717,60.883 105.183,62.133 109.25,64.4 C110.15,64.9 110.983,65.334 111.75,65.7 C106.15,66.133 99.6,66.95 92.1,68.15 C79.233,70.183 72.8,72.217 72.8,74.25 C72.8,74.317 72.9,74.433 73.1,74.6 C73.566,74.933 73.967,75.233 74.3,75.5 C79.967,73.4 84.783,72.017 88.75,71.35 C92.85,70.65 102.75,69.533 118.45,68 L132.35,68.2 C151.517,69.533 163.633,70.633 168.7,71.5 C172.3,72.067 179.766,73.417 191.099,75.55 C193.9,75.95 199.749,77.383 208.65,79.85 C216.516,81.983 221.616,83.05 223.95,83.05 C224.483,83.05 225.233,82.4 226.2,81.1 C211.633,76.9 199.816,74.05 190.75,72.55 C187.483,72.017 183.816,71.484 179.75,70.95 C181.883,70.35 184.967,69.333 189,67.9 C197.833,65.433 208.066,64.2 219.7,64.2 C223.634,64.2 226.333,64.467 227.8,65 C229.267,65.5 230.401,65.75 231.2,65.75 C232.266,65.75 232.95,65.633 233.25,65.4 C233.35,65.334 233.5,64.95 233.7,64.25 C232.7,64.017 231.816,63.667 231.05,63.2 C230.151,62.7 229.5,62.383 229.1,62.25 C227.134,61.617 222.5,61.383 215.2,61.55 L215.2,61.55 Z M201.55,42.4 C206.083,44.467 210.8,46.05 215.7,47.15 C231.866,50.683 244.683,55 254.15,60.1 C259.483,62.967 266.083,67.75 273.95,74.45 C279.65,79.283 284.717,89.4 289.15,104.8 C290.116,108.1 290.966,111.317 291.7,114.45 L291.7,114.8 C291.7,116.6 292.134,119.417 293,123.25 C293.967,127.583 294.5,130.267 294.6,131.3 C295,136.267 295.201,141.917 295.201,148.25 C295.201,157.95 293.401,168.233 289.801,179.1 C286.268,189.701 281.451,199.55 275.351,208.651 C265.118,223.951 250.718,236.434 232.152,246.1 C211.452,256.833 188.785,262.201 164.152,262.201 L162.252,262.201 C161.186,262.267 160.019,262.301 158.752,262.301 C156.852,262.301 154.202,262.101 150.802,261.701 C148.002,261.367 145.952,261.067 144.652,260.801 C142.685,260.534 141.152,260.301 140.052,260.101 L139.902,260.101 L138.602,260.051 C106.235,255.051 80.002,246.902 59.902,235.601 C47.235,228.501 34.885,218.402 22.852,205.301 C15.485,197.268 10.269,187.318 7.202,175.451 C4.935,166.651 3.802,156.367 3.802,144.6 C3.802,133.401 5.852,121.517 9.952,108.951 C14.719,94.251 21.635,81.101 30.702,69.501 C41.369,55.801 54.318,45.218 69.552,37.751 C87.219,29.184 107.402,25.101 130.102,25.501 L153.852,25.501 C167.486,27.534 179.502,31.201 189.903,36.501 C192.566,37.833 196.45,39.8 201.55,42.4 L201.55,42.4 Z" id="Shape" fill="#C32B08"></path>
            <path d="M202.75,39.6 C207.983,41.833 212.967,43.467 217.7,44.5 C233.099,47.833 245.533,52.033 255,57.1 C260.7,60.166 267.816,65.267 276.35,72.4 C282.217,77.3 287.451,87.75 292.05,103.75 C293.217,107.883 294.234,111.85 295.1,115.65 C295.567,118.75 295.917,120.917 296.151,122.15 C296.418,123.65 296.817,126.383 297.35,130.35 C297.55,133.017 297.734,136.333 297.901,140.3 C298.1,144.8 298.201,147.45 298.201,148.25 C298.201,157.95 296.251,168.483 292.35,179.85 C288.85,190.017 283.934,200.417 277.6,211.05 C271.067,220.484 261.534,229.634 249,238.5 C224.066,256.233 195.8,265.1 164.2,265.1 C162.7,265.1 161.2,265.017 159.7,264.85 L158.4,264.85 C152.667,264.35 148.85,264 146.95,263.8 C143.916,263.467 141.75,263.134 140.45,262.8 L139.2,262.8 C105.4,257.567 78.566,249.417 58.7,238.35 C50.8,233.917 43.467,228.767 36.7,222.901 C32.3,219.034 26.916,213.701 20.55,206.901 C12.783,198.567 7.35,188.384 4.25,176.35 C1.95,167.55 0.8,156.967 0.8,144.6 C0.8,136.3 2.267,126.6 5.2,115.5 C9.233,100.267 15.283,86.55 23.35,74.35 C33.683,58.683 46.75,46.533 62.55,37.9 C81.617,27.5 104.167,22.533 130.2,23 L130.2,22.8 L153.2,22.8 C165.099,24.133 177.05,27.6 189.05,33.2 C192.184,34.667 196.75,36.8 202.75,39.6 L202.75,39.6 Z M201.55,42.4 C196.45,39.8 192.567,37.834 189.901,36.5 C179.501,31.2 167.484,27.533 153.85,25.5 L130.1,25.5 C107.4,25.1 87.217,29.183 69.55,37.75 C54.317,45.217 41.367,55.8 30.7,69.5 C21.633,81.1 14.717,94.25 9.95,108.95 C5.85,121.516 3.8,133.4 3.8,144.599 C3.8,156.366 4.933,166.65 7.2,175.45 C10.266,187.316 15.483,197.266 22.85,205.3 C34.883,218.401 47.233,228.5 59.9,235.6 C80,246.901 106.233,255.05 138.6,260.05 L139.9,260.1 L140.05,260.1 C141.15,260.3 142.683,260.534 144.65,260.8 C145.95,261.067 148,261.366 150.8,261.7 C154.2,262.099 156.85,262.3 158.75,262.3 C160.017,262.3 161.184,262.267 162.25,262.2 L164.15,262.2 C188.783,262.2 211.45,256.833 232.15,246.099 C250.716,236.433 265.116,223.95 275.349,208.65 C281.45,199.549 286.266,189.7 289.799,179.099 C293.4,168.233 295.199,157.95 295.199,148.249 C295.199,141.916 294.999,136.266 294.598,131.299 C294.498,130.266 293.965,127.583 292.998,123.249 C292.132,119.416 291.698,116.599 291.698,114.799 L291.698,114.449 C290.965,111.316 290.114,108.099 289.148,104.799 C284.714,89.399 279.648,79.282 273.948,74.449 C266.081,67.749 259.481,62.966 254.148,60.099 C244.681,54.999 231.864,50.682 215.698,47.149 C210.8,46.05 206.083,44.467 201.55,42.4 L201.55,42.4 Z M215.2,61.55 C222.5,61.383 227.134,61.617 229.099,62.25 C229.499,62.383 230.15,62.7 231.049,63.2 C231.816,63.666 232.699,64.016 233.699,64.25 C233.499,64.95 233.348,65.333 233.249,65.4 C232.949,65.633 232.266,65.75 231.199,65.75 C230.399,65.75 229.265,65.5 227.799,65 C226.332,64.467 223.633,64.2 219.699,64.2 C208.065,64.2 197.832,65.433 188.999,67.9 C184.966,69.334 181.882,70.35 179.749,70.95 C183.815,71.483 187.482,72.016 190.749,72.55 C199.815,74.05 211.632,76.9 226.199,81.1 C225.232,82.4 224.482,83.05 223.949,83.05 C221.615,83.05 216.515,81.984 208.649,79.85 C199.749,77.383 193.899,75.95 191.098,75.55 C179.765,73.417 172.298,72.067 168.699,71.5 C163.632,70.633 151.515,69.533 132.349,68.2 L118.449,68 C102.749,69.533 92.849,70.65 88.749,71.35 C84.782,72.017 79.966,73.4 74.299,75.5 C73.966,75.233 73.566,74.933 73.099,74.6 C72.899,74.433 72.799,74.317 72.799,74.25 C72.799,72.217 79.233,70.183 92.099,68.15 C99.599,66.95 106.149,66.133 111.749,65.7 C110.982,65.333 110.149,64.9 109.249,64.4 C105.182,62.133 102.716,60.883 101.849,60.65 C97.349,59.417 90.982,57.967 82.749,56.3 C77.449,55.2 74.799,54.4 74.799,53.9 C74.799,51.667 78.916,51.567 87.149,53.6 C91.482,54.666 96.999,56.217 103.699,58.25 C105.265,59.05 107.966,60.267 111.799,61.9 C114.333,63.133 116.282,64.3 117.649,65.4 C118.349,65.367 119.032,65.35 119.699,65.35 C141.699,66.916 159.716,68.533 173.749,70.2 C174.149,69.367 179.365,67.683 189.399,65.15 C200.733,62.217 209.333,61.017 215.2,61.55 L215.2,61.55 Z" id="Shape" fill="#000000"></path>
            <path d="M202.9,24.85 C201.4,30.55 199.667,35.883 197.7,40.85 C193.833,50.65 189.8,57.233 185.599,60.6 C189.332,59.967 192.332,59.383 194.599,58.85 C202.666,56.983 210.166,53.633 217.099,48.8 C218.299,47.967 223.883,42.717 233.849,33.05 C241.082,26.017 244.7,23.85 244.7,26.55 C244.7,29.55 243.033,33.65 239.7,38.85 C235.8,44.817 230.733,50.4 224.5,55.6 C207.467,69.733 186.95,76.8 162.95,76.8 C160.349,76.8 157.816,76.05 155.349,74.55 C154.849,74.217 154.4,73.917 153.999,73.65 C150.433,75.084 145.582,75.8 139.449,75.8 C132.015,75.8 125.966,74.45 121.299,71.75 C115.899,71.283 108.583,68.283 99.349,62.75 C90.415,57.45 84.665,53.133 82.099,49.8 C77.299,43.6 74.082,38.834 72.449,35.5 C70.349,31.233 69.299,26.617 69.299,21.65 C69.299,18.017 69.766,16.3 70.699,16.5 C71.432,16.7 72.582,18.217 74.149,21.05 C75.049,22.717 76.532,25.6 78.599,29.7 C80.466,33.3 81.949,35.75 83.049,37.05 C88.682,43.65 95.466,48.817 103.399,52.55 C105.232,53.417 107.583,54.383 110.449,55.45 C110.015,52.95 109.799,50.166 109.799,47.1 C109.799,40.967 110.882,38.083 113.049,38.45 C115.416,38.817 118.132,43.35 121.199,52.05 C123.399,55.617 126.432,57.867 130.299,58.8 C128.866,57.533 127.483,55.867 126.149,53.8 C125.182,52.367 123.416,48.95 120.849,43.55 C119.482,40.75 118.665,37.567 118.399,34 C118.333,33.167 118.299,29.967 118.299,24.4 C118.299,19.567 118.932,13.95 120.199,7.55 C121.532,0.984 123.332,-0.766 125.599,2.3 C125.999,4 126.199,6.85 126.199,10.85 C126.199,15.883 126.232,18.8 126.299,19.6 C126.532,23.133 127.216,25.967 128.349,28.1 C130.282,31.7 133.266,35.3 137.299,38.9 C138.399,39.9 139.449,40.8 140.449,41.6 C140.949,37.467 141.199,34.7 141.199,33.3 C142.265,26.1 144.216,19.5 147.049,13.5 C148.116,11.167 149.032,9.683 149.799,9.05 C150.099,7.817 151.032,6.8 152.599,6 C154.366,5.1 156.483,4.65 158.95,4.65 C161.483,4.683 163.599,5.2 165.3,6.2 C167.234,7.333 168.2,8.916 168.2,10.95 C168.2,12.683 167.7,14.05 166.7,15.05 L166.7,15.3 C166.7,15.5 165.45,17.867 162.95,22.4 C160.45,26.9 159.2,31.15 159.2,35.15 C159.2,36.717 159.533,40.017 160.2,45.05 C160.866,50.117 161.2,53.65 161.2,55.65 L161.2,57 C163.099,55.133 166.133,52.967 170.3,50.5 C180.1,44.7 185.984,40.817 187.95,38.85 C190.45,36.35 193.667,31.5 197.599,24.3 C200.9,18.267 203.15,15.183 204.349,15.05 C204.349,15.084 204.416,15.167 204.549,15.3 C204.65,15.467 204.699,15.8 204.699,16.3 C204.7,17.367 204.1,20.217 202.9,24.85 L202.9,24.85 Z M181.85,48.6 C181.083,49.166 178.883,50.367 175.25,52.2 C171.517,54.067 168.833,55.283 167.2,55.85 C165.933,56.283 164.599,57.45 163.2,59.35 C162.233,60.783 161.45,61.867 160.849,62.6 C160.816,63.033 160.766,63.45 160.7,63.85 C160.667,64.15 160.633,64.433 160.599,64.7 C162.299,64.133 164.632,63.65 167.599,63.25 C170.9,62.817 173.933,62.4 176.7,62 L176.7,61.9 C176.7,61.867 177.5,61.267 179.099,60.1 C181.132,58.5 183.049,56.717 184.849,54.75 C190.783,48.283 194.9,40.733 197.2,32.1 L197.099,31.85 C193.733,37.45 188.65,43.033 181.85,48.6 L181.85,48.6 Z M229.8,42 C225.767,45.833 222.083,48.9 218.75,51.2 C206.55,59.633 192.083,63.85 175.35,63.85 C173.25,63.85 170.217,64.483 166.25,65.75 C163.417,66.65 161.267,67.467 159.8,68.2 C159.467,69.2 159.067,69.916 158.6,70.35 C158.401,70.817 158,71.3 157.401,71.8 C159.567,72.967 161.401,73.55 162.901,73.55 C179.067,73.55 193.784,70.3 207.05,63.8 C220.583,57.167 230.267,48.25 236.1,37.05 L236.1,36.8 C235.2,37.133 233.1,38.867 229.8,42 L229.8,42 Z M154.5,11.9 C155.467,12.633 156.783,13.183 158.45,13.55 L162.849,13.55 C163.95,13.117 164.632,12.75 164.9,12.45 C165.099,12.217 165.2,11.783 165.2,11.15 C165.2,9.817 164.183,8.817 162.15,8.15 C159.549,7.35 156.4,8 152.7,10.1 C153.1,10.433 153.7,11.033 154.5,11.9 L154.5,11.9 Z M144.3,59.55 C144.4,59.883 144.65,60.05 145.05,60.05 C145.283,60.05 145.5,59.984 145.7,59.85 C145.967,59.916 146.217,59.983 146.45,60.05 C147.516,60.383 149.8,61.9 153.3,64.6 C154.467,65.5 155.45,66.283 156.25,66.95 C156.483,65.916 156.717,64.85 156.95,63.75 C157.783,59.95 158.2,57.217 158.2,55.55 C158.2,53.317 157.866,49.933 157.2,45.4 C156.533,40.9 156.2,37.567 156.2,35.4 C156.2,30.567 156.7,26.8 157.7,24.1 C158.766,21.3 160.516,18.817 162.95,16.65 C162.25,16.75 161.5,16.8 160.7,16.8 C156.366,16.8 153.25,15.717 151.349,13.55 C151.082,13.25 150.849,12.95 150.65,12.65 C150.116,14.317 149.167,17.017 147.799,20.75 C145.466,27.717 144.266,33.167 144.199,37.1 C144.132,44.2 143.966,49.233 143.699,52.2 C143.399,55.2 142.999,57.567 142.499,59.3 C143.133,59.367 143.733,59.45 144.3,59.55 L144.3,59.55 Z M122.95,8.85 C122.283,13.283 121.75,16.416 121.35,18.25 C121.25,18.717 121.2,20.767 121.2,24.4 C121.2,32.367 122,38.167 123.6,41.8 C125.633,46.5 130.383,52.317 137.85,59.25 L138.3,59.25 C138.467,57.117 138.933,53.183 139.7,47.45 C139.733,47.25 139.766,47.05 139.8,46.85 C138.433,46.65 136.933,45.683 135.3,43.95 C131.467,41.683 128.433,36.583 126.2,28.65 C124.2,21.55 123.2,14.95 123.2,8.85 L122.95,8.85 L122.95,8.85 Z M113.1,45.2 C112.9,45.967 112.8,46.6 112.8,47.1 C112.8,53.1 113.734,57.85 115.6,61.35 C119.566,68.817 127.35,72.55 138.95,72.55 C145.55,72.55 149.9,72.067 152,71.1 C152.267,70.967 152.533,70.8 152.8,70.6 L152.85,70.55 C153.05,70.35 153.25,70.183 153.451,70.05 C153.751,69.75 154.084,69.6 154.451,69.6 C150.951,66.233 145.451,63.933 137.951,62.7 C133.517,61.933 130.718,61.4 129.551,61.1 C126.551,60.367 124.101,59.283 122.201,57.85 C119.868,56.117 118.051,53.583 116.751,50.25 C115.251,46.35 114.184,44.033 113.551,43.3 L113.551,43.35 C113.483,43.75 113.333,44.367 113.1,45.2 L113.1,45.2 Z M112.85,62.9 C112.15,61.533 111.566,60 111.1,58.3 C105.4,58.1 97.983,54.05 88.85,46.15 C82.883,40.983 78.367,36.45 75.3,32.55 C77.267,39.917 82.584,46.767 91.25,53.1 C97.183,57.433 105.083,61.8 114.95,66.2 C114.15,65.167 113.45,64.067 112.85,62.9 L112.85,62.9 Z" id="Shape" fill="#000000"></path>
            <path d="M181.85,48.6 C188.651,43.033 193.734,37.45 197.1,31.85 L197.201,32.1 C194.901,40.733 190.784,48.283 184.85,54.75 C183.05,56.717 181.133,58.5 179.1,60.1 C177.5,61.267 176.701,61.867 176.701,61.9 L176.701,62 C173.934,62.4 170.901,62.817 167.6,63.25 C164.633,63.65 162.3,64.133 160.6,64.7 C160.633,64.433 160.667,64.15 160.701,63.85 C160.767,63.45 160.817,63.033 160.85,62.6 C161.451,61.867 162.234,60.783 163.201,59.35 C164.6,57.45 165.934,56.283 167.201,55.85 C168.834,55.283 171.517,54.067 175.251,52.2 C178.883,50.367 181.083,49.167 181.85,48.6 L181.85,48.6 Z M145.7,59.85 C145.5,59.983 145.283,60.05 145.05,60.05 C144.65,60.05 144.4,59.883 144.3,59.55 L144.3,59.05 C144.3,58.717 144.8,56.867 145.8,53.5 C146.8,50.133 147.3,46.667 147.3,43.1 L146.8,31.65 C146.8,27.75 147.8,23.75 149.8,19.65 C150.567,18.117 151.25,17.033 151.85,16.4 C152.484,15.767 152.8,15.867 152.8,16.7 C152.8,17.2 152.05,18.883 150.55,21.75 C149.05,25.15 148.3,28.383 148.3,31.45 L148.8,43.2 C148.8,45.9 148.55,48.983 148.05,52.45 C147.45,56.65 146.667,59.117 145.7,59.85 L145.7,59.85 Z M122.95,8.85 L123.2,8.85 C123.2,14.95 124.2,21.55 126.2,28.65 C128.433,36.584 131.467,41.683 135.3,43.95 C136.933,45.683 138.433,46.65 139.8,46.85 C139.767,47.05 139.734,47.25 139.7,47.45 C138.933,53.183 138.467,57.117 138.3,59.25 L137.85,59.25 C130.383,52.317 125.633,46.5 123.6,41.8 C122,38.167 121.2,32.367 121.2,24.4 C121.2,20.767 121.25,18.717 121.35,18.25 C121.75,16.417 122.283,13.283 122.95,8.85 L122.95,8.85 Z M112.85,62.9 C113.45,64.067 114.15,65.167 114.95,66.2 C105.083,61.8 97.183,57.433 91.25,53.1 C82.583,46.767 77.267,39.916 75.3,32.55 C78.367,36.45 82.883,40.984 88.85,46.15 C97.983,54.05 105.4,58.1 111.1,58.3 C111.566,60 112.15,61.533 112.85,62.9 L112.85,62.9 Z" id="Shape" fill="#669A1F"></path>
            <path d="M229.8,42 C233.1,38.867 235.2,37.133 236.1,36.8 L236.1,37.05 C230.267,48.25 220.583,57.167 207.05,63.8 C193.783,70.3 179.067,73.55 162.901,73.55 C161.401,73.55 159.567,72.967 157.401,71.8 C158.001,71.3 158.401,70.817 158.6,70.35 C159.067,69.916 159.467,69.2 159.8,68.2 C161.267,67.467 163.417,66.65 166.25,65.75 C170.217,64.483 173.25,63.85 175.35,63.85 C192.083,63.85 206.55,59.633 218.75,51.2 C222.083,48.9 225.767,45.833 229.8,42 L229.8,42 Z M144.3,59.55 C143.734,59.45 143.133,59.367 142.5,59.3 C143,57.567 143.4,55.2 143.7,52.2 C143.967,49.233 144.133,44.2 144.2,37.1 C144.266,33.166 145.467,27.717 147.8,20.75 C149.167,17.017 150.116,14.317 150.651,12.65 C150.85,12.95 151.084,13.25 151.35,13.55 C153.25,15.717 156.367,16.8 160.701,16.8 C161.501,16.8 162.251,16.75 162.951,16.65 C160.517,18.817 158.767,21.3 157.701,24.1 C156.701,26.8 156.201,30.567 156.201,35.4 C156.201,37.567 156.534,40.9 157.201,45.4 C157.867,49.933 158.201,53.317 158.201,55.55 C158.201,57.217 157.784,59.95 156.951,63.75 C156.718,64.85 156.484,65.917 156.251,66.95 C155.451,66.283 154.468,65.5 153.301,64.6 C149.801,61.9 147.518,60.383 146.451,60.05 C146.218,59.984 145.968,59.917 145.701,59.85 C146.667,59.117 147.451,56.65 148.051,52.45 C148.551,48.983 148.801,45.9 148.801,43.2 L148.301,31.45 C148.301,28.383 149.051,25.15 150.551,21.75 C152.051,18.883 152.801,17.2 152.801,16.7 C152.801,15.867 152.485,15.766 151.851,16.4 C151.251,17.033 150.568,18.117 149.801,19.65 C147.801,23.75 146.801,27.75 146.801,31.65 L147.301,43.1 C147.301,46.666 146.801,50.133 145.801,53.5 C144.801,56.867 144.301,58.717 144.301,59.05 L144.301,59.55 L144.3,59.55 Z M113.1,45.2 C113.333,44.367 113.483,43.75 113.55,43.35 L113.55,43.3 C114.183,44.033 115.25,46.35 116.75,50.25 C118.05,53.583 119.867,56.117 122.2,57.85 C124.1,59.283 126.55,60.367 129.55,61.1 C130.717,61.4 133.517,61.933 137.95,62.7 C145.45,63.933 150.95,66.233 154.45,69.6 C154.083,69.6 153.75,69.75 153.45,70.05 C153.25,70.183 153.05,70.35 152.849,70.55 L152.799,70.6 C152.532,70.8 152.266,70.967 151.999,71.1 C149.899,72.067 145.549,72.55 138.949,72.55 C127.349,72.55 119.565,68.817 115.599,61.35 C113.732,57.85 112.799,53.1 112.799,47.1 C112.8,46.6 112.9,45.967 113.1,45.2 L113.1,45.2 Z" id="Shape" fill="#4C6F1D"></path>
            <path d="M154.5,11.9 C153.7,11.033 153.1,10.433 152.7,10.1 C156.4,8 159.55,7.35 162.15,8.15 C164.183,8.817 165.2,9.817 165.2,11.15 C165.2,11.783 165.099,12.217 164.9,12.45 C164.632,12.75 163.95,13.117 162.849,13.55 L158.45,13.55 C156.783,13.183 155.467,12.633 154.5,11.9 L154.5,11.9 Z" id="Shape" fill="#395D0A"></path>
            <path d="M57.5,56.55 C63.033,55.55 65.8,57.917 65.8,63.65 C65.8,64.117 64.567,65.65 62.1,68.25 C58.5,71.95 55.617,74.967 53.45,77.3 C44.617,86.9 39.066,94.817 36.8,101.05 C32.8,111.783 30.5,118.5 29.9,121.2 C29.167,124.367 28.8,129.733 28.8,137.3 C28.8,174.366 43.3,201.116 72.3,217.55 C79.334,221.55 89.3,225.783 102.2,230.25 C107.1,231.917 110.383,233.167 112.05,234 C114.55,235.233 115.8,236.467 115.8,237.7 C115.8,239 115.217,240.349 114.05,241.75 C112.484,243.65 110.4,244.6 107.8,244.6 C74.967,244.6 49.633,229.701 31.8,199.901 C25.4,189.168 20.45,177.251 16.95,164.151 C14.183,153.717 12.8,144.8 12.8,137.401 C12.8,122.734 15.567,108.917 21.1,95.951 C25.733,85.017 31.8,75.751 39.3,68.151 C45.967,61.417 52.033,57.55 57.5,56.55 L57.5,56.55 Z" id="Shape" fill="#D63510"></path>
        </g>
    </g>
</svg>