<?xml version="1.0" encoding="utf-8"?>
<!-- Generator: Adobe Illustrator 15.0.0, SVG Export Plug-In . SVG Version: 6.00 Build 0)  -->
<!DOCTYPE svg PUBLIC "-//W3C//DTD SVG 1.1//EN" "http://www.w3.org/Graphics/SVG/1.1/DTD/svg11.dtd">
<svg version="1.1" id="Layer_1" xmlns="http://www.w3.org/2000/svg" xmlns:xlink="http://www.w3.org/1999/xlink" x="0px" y="0px"
	 width="550px" height="400px" viewBox="0 0 550 400" enable-background="new 0 0 550 400" xml:space="preserve">
<path fill-rule="evenodd" clip-rule="evenodd" fill="#C32B08" d="M341.2,128.55c-5.867-0.533-14.467,0.667-25.8,3.6
	c-10.034,2.533-15.25,4.217-15.65,5.05c-14.033-1.667-32.05-3.284-54.05-4.85c-0.667,0-1.35,0.017-2.05,0.05
	c-1.367-1.1-3.316-2.267-5.85-3.5c-3.833-1.633-6.533-2.85-8.1-3.65c-6.7-2.033-12.217-3.583-16.55-4.65
	c-8.233-2.033-12.35-1.934-12.35,0.3c0,0.5,2.65,1.3,7.95,2.4c8.233,1.667,14.6,3.117,19.1,4.35c0.867,0.233,3.333,1.483,7.4,3.75
	c0.9,0.5,1.733,0.934,2.5,1.3c-5.6,0.433-12.15,1.25-19.65,2.45c-12.867,2.033-19.3,4.067-19.3,6.1c0,0.067,0.1,0.183,0.3,0.35
	c0.466,0.333,0.867,0.633,1.2,0.9c5.667-2.1,10.483-3.483,14.45-4.15c4.1-0.7,14-1.817,29.7-3.35l13.9,0.2
	c19.167,1.333,31.283,2.433,36.35,3.3c3.6,0.567,11.066,1.917,22.399,4.05c2.801,0.4,8.65,1.833,17.551,4.3
	c7.866,2.133,12.966,3.2,15.3,3.2c0.533,0,1.283-0.65,2.25-1.95c-14.567-4.2-26.384-7.05-35.45-8.55
	c-3.267-0.533-6.934-1.066-11-1.6c2.133-0.6,5.217-1.617,9.25-3.05c8.833-2.467,19.066-3.7,30.7-3.7c3.934,0,6.633,0.267,8.1,0.8
	c1.467,0.5,2.601,0.75,3.4,0.75c1.066,0,1.75-0.117,2.05-0.35c0.1-0.066,0.25-0.45,0.45-1.15c-1-0.233-1.884-0.583-2.65-1.05
	c-0.899-0.5-1.55-0.817-1.95-0.95C353.134,128.617,348.5,128.383,341.2,128.55z M327.55,109.4c4.533,2.067,9.25,3.65,14.15,4.75
	c16.166,3.533,28.983,7.85,38.45,12.95c5.333,2.867,11.933,7.65,19.8,14.35c5.7,4.833,10.767,14.95,15.2,30.35
	c0.966,3.3,1.816,6.517,2.55,9.65c0,0.1,0,0.216,0,0.35c0,1.8,0.434,4.617,1.3,8.45c0.967,4.333,1.5,7.017,1.6,8.05
	c0.4,4.967,0.601,10.617,0.601,16.95c0,9.7-1.8,19.983-5.4,30.85c-3.533,10.601-8.35,20.45-14.45,29.551
	c-10.233,15.3-24.633,27.783-43.199,37.449c-20.7,10.733-43.367,16.101-68,16.101c-0.667,0-1.301,0-1.9,0
	c-1.066,0.066-2.233,0.1-3.5,0.1c-1.9,0-4.55-0.2-7.95-0.6c-2.8-0.334-4.85-0.634-6.15-0.9c-1.967-0.267-3.5-0.5-4.6-0.7
	c-0.033,0-0.083,0-0.15,0l-1.3-0.05c-32.367-5-58.6-13.149-78.7-24.45c-12.667-7.1-25.017-17.199-37.05-30.3
	c-7.367-8.033-12.583-17.983-15.65-29.85c-2.267-8.8-3.4-19.084-3.4-30.851c0-11.199,2.05-23.083,6.15-35.649
	c4.767-14.7,11.683-27.85,20.75-39.45c10.667-13.7,23.616-24.283,38.85-31.75c17.667-8.567,37.85-12.65,60.55-12.25h23.75
	c13.634,2.033,25.65,5.7,36.051,11C318.566,104.833,322.45,106.8,327.55,109.4z"/>
<path fill-rule="evenodd" clip-rule="evenodd" d="M328.75,106.6c5.233,2.233,10.217,3.867,14.95,4.9
	c15.399,3.333,27.833,7.533,37.3,12.6c5.7,3.066,12.816,8.167,21.35,15.3c5.867,4.9,11.101,15.35,15.7,31.35
	c1.167,4.133,2.184,8.1,3.05,11.9c0.467,3.1,0.817,5.267,1.051,6.5c0.267,1.5,0.666,4.233,1.199,8.2
	c0.2,2.667,0.384,5.983,0.551,9.95c0.199,4.5,0.3,7.15,0.3,7.95c0,9.7-1.95,20.233-5.851,31.6c-3.5,10.167-8.416,20.567-14.75,31.2
	c-6.533,9.434-16.066,18.584-28.6,27.45c-24.934,17.733-53.2,26.6-84.8,26.6c-1.5,0-3-0.083-4.5-0.25h-1.3
	c-5.733-0.5-9.55-0.85-11.45-1.05c-3.034-0.333-5.2-0.666-6.5-1h-1.25c-33.8-5.233-60.634-13.383-80.5-24.45
	c-7.9-4.433-15.233-9.583-22-15.449c-4.4-3.867-9.784-9.2-16.15-16c-7.767-8.334-13.2-18.517-16.3-30.551
	c-2.3-8.8-3.45-19.383-3.45-31.75c0-8.3,1.467-18,4.4-29.1c4.033-15.233,10.083-28.95,18.15-41.15
	c10.333-15.667,23.4-27.817,39.2-36.45c19.067-10.4,41.617-15.367,67.65-14.9v-0.2h23c11.899,1.333,23.85,4.8,35.85,10.4
	C318.184,101.667,322.75,103.8,328.75,106.6z M327.55,109.4c-5.1-2.6-8.983-4.566-11.649-5.9c-10.4-5.3-22.417-8.967-36.051-11
	H256.1c-22.7-0.4-42.883,3.683-60.55,12.25c-15.233,7.467-28.183,18.05-38.85,31.75c-9.067,11.6-15.983,24.75-20.75,39.45
	c-4.1,12.566-6.15,24.45-6.15,35.649c0,11.767,1.133,22.051,3.4,30.851c3.066,11.866,8.283,21.816,15.65,29.85
	c12.033,13.101,24.383,23.2,37.05,30.3c20.1,11.301,46.333,19.45,78.7,24.45l1.3,0.05c0.067,0,0.117,0,0.15,0
	c1.1,0.2,2.633,0.434,4.6,0.7c1.3,0.267,3.35,0.566,6.15,0.9c3.4,0.399,6.05,0.6,7.95,0.6c1.267,0,2.434-0.033,3.5-0.1
	c0.6,0,1.233,0,1.9,0c24.633,0,47.3-5.367,68-16.101c18.566-9.666,32.966-22.149,43.199-37.449
	c6.101-9.101,10.917-18.95,14.45-29.551c3.601-10.866,5.4-21.149,5.4-30.85c0-6.333-0.2-11.983-0.601-16.95
	c-0.1-1.033-0.633-3.716-1.6-8.05c-0.866-3.833-1.3-6.65-1.3-8.45c0-0.133,0-0.25,0-0.35c-0.733-3.133-1.584-6.35-2.55-9.65
	c-4.434-15.4-9.5-25.517-15.2-30.35c-7.867-6.7-14.467-11.483-19.8-14.35c-9.467-5.1-22.284-9.417-38.45-12.95
	C336.8,113.05,332.083,111.467,327.55,109.4z M341.2,128.55c7.3-0.167,11.934,0.067,13.899,0.7c0.4,0.133,1.051,0.45,1.95,0.95
	c0.767,0.466,1.65,0.816,2.65,1.05c-0.2,0.7-0.351,1.083-0.45,1.15c-0.3,0.233-0.983,0.35-2.05,0.35c-0.8,0-1.934-0.25-3.4-0.75
	c-1.467-0.533-4.166-0.8-8.1-0.8c-11.634,0-21.867,1.233-30.7,3.7c-4.033,1.434-7.117,2.45-9.25,3.05
	c4.066,0.533,7.733,1.066,11,1.6c9.066,1.5,20.883,4.35,35.45,8.55c-0.967,1.3-1.717,1.95-2.25,1.95c-2.334,0-7.434-1.066-15.3-3.2
	c-8.9-2.467-14.75-3.9-17.551-4.3c-11.333-2.133-18.8-3.483-22.399-4.05c-5.067-0.867-17.184-1.967-36.35-3.3l-13.9-0.2
	c-15.7,1.533-25.6,2.65-29.7,3.35c-3.967,0.667-8.783,2.05-14.45,4.15c-0.333-0.267-0.733-0.567-1.2-0.9
	c-0.2-0.167-0.3-0.283-0.3-0.35c0-2.033,6.434-4.067,19.3-6.1c7.5-1.2,14.05-2.017,19.65-2.45c-0.767-0.367-1.6-0.8-2.5-1.3
	c-4.067-2.267-6.533-3.517-7.4-3.75c-4.5-1.233-10.867-2.683-19.1-4.35c-5.3-1.1-7.95-1.9-7.95-2.4c0-2.233,4.117-2.333,12.35-0.3
	c4.333,1.066,9.85,2.617,16.55,4.65c1.566,0.8,4.267,2.017,8.1,3.65c2.534,1.233,4.483,2.4,5.85,3.5c0.7-0.033,1.383-0.05,2.05-0.05
	c22,1.566,40.017,3.183,54.05,4.85c0.4-0.833,5.616-2.517,15.65-5.05C326.733,129.217,335.333,128.017,341.2,128.55z"/>
<path fill-rule="evenodd" clip-rule="evenodd" d="M328.9,91.85c-1.5,5.7-3.233,11.033-5.2,16c-3.867,9.8-7.9,16.383-12.101,19.75
	c3.733-0.633,6.733-1.217,9-1.75c8.067-1.867,15.567-5.217,22.5-10.05c1.2-0.833,6.784-6.083,16.75-15.75
	c7.233-7.033,10.851-9.2,10.851-6.5c0,3-1.667,7.1-5,12.3c-3.9,5.967-8.967,11.55-15.2,16.75c-17.033,14.133-37.55,21.2-61.55,21.2
	c-2.601,0-5.134-0.75-7.601-2.25c-0.5-0.333-0.949-0.633-1.35-0.9c-3.566,1.434-8.417,2.15-14.55,2.15
	c-7.434,0-13.483-1.35-18.15-4.05c-5.4-0.467-12.716-3.467-21.95-9c-8.934-5.3-14.684-9.617-17.25-12.95
	c-4.8-6.2-8.017-10.966-9.65-14.3c-2.1-4.267-3.15-8.883-3.15-13.85c0-3.633,0.467-5.35,1.4-5.15c0.733,0.2,1.883,1.717,3.45,4.55
	c0.9,1.667,2.383,4.55,4.45,8.65c1.867,3.6,3.35,6.05,4.45,7.35c5.633,6.6,12.417,11.767,20.35,15.5
	c1.833,0.867,4.184,1.833,7.05,2.9c-0.434-2.5-0.65-5.284-0.65-8.35c0-6.133,1.083-9.017,3.25-8.65c2.367,0.367,5.083,4.9,8.15,13.6
	c2.2,3.567,5.233,5.817,9.1,6.75c-1.433-1.267-2.816-2.933-4.15-5c-0.967-1.433-2.733-4.85-5.3-10.25
	c-1.367-2.8-2.184-5.983-2.45-9.55c-0.066-0.833-0.1-4.033-0.1-9.6c0-4.833,0.633-10.45,1.9-16.85c1.333-6.566,3.133-8.316,5.4-5.25
	c0.4,1.7,0.6,4.55,0.6,8.55c0,5.033,0.033,7.95,0.1,8.75c0.233,3.533,0.917,6.367,2.05,8.5c1.933,3.6,4.917,7.2,8.95,10.8
	c1.1,1,2.15,1.9,3.15,2.7c0.5-4.133,0.75-6.9,0.75-8.3c1.066-7.2,3.017-13.8,5.85-19.8c1.067-2.333,1.983-3.817,2.75-4.45
	c0.3-1.233,1.233-2.25,2.8-3.05c1.767-0.9,3.884-1.35,6.351-1.35c2.533,0.033,4.649,0.55,6.35,1.55c1.934,1.133,2.9,2.716,2.9,4.75
	c0,1.733-0.5,3.1-1.5,4.1c0,0.067,0,0.15,0,0.25c0,0.2-1.25,2.567-3.75,7.1c-2.5,4.5-3.75,8.75-3.75,12.75
	c0,1.567,0.333,4.867,1,9.9c0.666,5.067,1,8.6,1,10.6c0,0.434,0,0.883,0,1.35c1.899-1.867,4.933-4.033,9.1-6.5
	c9.8-5.8,15.684-9.683,17.65-11.65c2.5-2.5,5.717-7.35,9.649-14.55c3.301-6.033,5.551-9.117,6.75-9.25c0,0.034,0.067,0.117,0.2,0.25
	c0.101,0.167,0.15,0.5,0.15,1C330.7,84.367,330.1,87.217,328.9,91.85z M307.85,115.6c-0.767,0.566-2.967,1.767-6.6,3.6
	c-3.733,1.867-6.417,3.083-8.05,3.65c-1.267,0.433-2.601,1.6-4,3.5c-0.967,1.433-1.75,2.517-2.351,3.25
	c-0.033,0.433-0.083,0.85-0.149,1.25c-0.033,0.3-0.067,0.583-0.101,0.85c1.7-0.567,4.033-1.05,7-1.45
	c3.301-0.433,6.334-0.85,9.101-1.25c0-0.033,0-0.067,0-0.1s0.8-0.633,2.399-1.8c2.033-1.6,3.95-3.383,5.75-5.35
	c5.934-6.467,10.051-14.017,12.351-22.65l-0.101-0.25C319.733,104.45,314.65,110.033,307.85,115.6z M355.8,109
	c-4.033,3.833-7.717,6.9-11.05,9.2c-12.2,8.433-26.667,12.65-43.4,12.65c-2.1,0-5.133,0.633-9.1,1.9
	c-2.833,0.9-4.983,1.717-6.45,2.45c-0.333,1-0.733,1.716-1.2,2.15c-0.199,0.467-0.6,0.95-1.199,1.45c2.166,1.167,4,1.75,5.5,1.75
	c16.166,0,30.883-3.25,44.149-9.75c13.533-6.633,23.217-15.55,29.05-26.75v-0.25C361.2,104.133,359.1,105.867,355.8,109z
	 M280.5,78.9c0.967,0.733,2.283,1.283,3.95,1.65h4.399c1.101-0.433,1.783-0.8,2.051-1.1c0.199-0.233,0.3-0.667,0.3-1.3
	c0-1.333-1.017-2.333-3.05-3c-2.601-0.8-5.75-0.15-9.45,1.95C279.1,77.433,279.7,78.033,280.5,78.9z M270.3,126.55
	c0.1,0.333,0.35,0.5,0.75,0.5c0.233,0,0.45-0.066,0.65-0.2c0.267,0.066,0.517,0.133,0.75,0.2c1.066,0.333,3.35,1.85,6.85,4.55
	c1.167,0.9,2.15,1.683,2.95,2.35c0.233-1.034,0.467-2.1,0.7-3.2c0.833-3.8,1.25-6.533,1.25-8.2c0-2.233-0.334-5.617-1-10.15
	c-0.667-4.5-1-7.833-1-10c0-4.833,0.5-8.6,1.5-11.3c1.066-2.8,2.816-5.283,5.25-7.45c-0.7,0.1-1.45,0.15-2.25,0.15
	c-4.334,0-7.45-1.083-9.351-3.25c-0.267-0.3-0.5-0.6-0.699-0.9c-0.534,1.667-1.483,4.367-2.851,8.1
	c-2.333,6.967-3.533,12.417-3.6,16.35c-0.067,7.1-0.233,12.133-0.5,15.1c-0.3,3-0.7,5.367-1.2,7.1
	C269.133,126.367,269.733,126.45,270.3,126.55z M248.95,75.85c-0.667,4.433-1.2,7.566-1.6,9.4c-0.1,0.467-0.15,2.517-0.15,6.15
	c0,7.967,0.8,13.767,2.4,17.4c2.033,4.7,6.783,10.517,14.25,17.45c0.133,0,0.283,0,0.45,0c0.167-2.133,0.633-6.067,1.4-11.8
	c0.033-0.2,0.066-0.4,0.1-0.6c-1.367-0.2-2.867-1.167-4.5-2.9c-3.833-2.267-6.867-7.367-9.1-15.3c-2-7.1-3-13.7-3-19.8H248.95z
	 M239.1,112.2c-0.2,0.767-0.3,1.4-0.3,1.9c0,6,0.934,10.75,2.8,14.25c3.966,7.467,11.75,11.2,23.35,11.2
	c6.6,0,10.95-0.483,13.05-1.45c0.267-0.133,0.533-0.3,0.8-0.5l0.05-0.05c0.2-0.2,0.4-0.367,0.601-0.5c0.3-0.3,0.633-0.45,1-0.45
	c-3.5-3.367-9-5.667-16.5-6.9c-4.434-0.767-7.233-1.3-8.4-1.6c-3-0.733-5.45-1.817-7.35-3.25c-2.333-1.733-4.15-4.267-5.45-7.6
	c-1.5-3.9-2.567-6.217-3.2-6.95v0.05C239.483,110.75,239.333,111.367,239.1,112.2z M238.85,129.9c-0.7-1.367-1.284-2.9-1.75-4.6
	c-5.7-0.2-13.117-4.25-22.25-12.15c-5.967-5.167-10.483-9.7-13.55-13.6c1.967,7.367,7.284,14.217,15.95,20.55
	c5.933,4.333,13.833,8.7,23.7,13.1C240.15,132.167,239.45,131.067,238.85,129.9z"/>
<path fill-rule="evenodd" clip-rule="evenodd" fill="#669A1F" d="M307.85,115.6c6.801-5.567,11.884-11.15,15.25-16.75l0.101,0.25
	c-2.3,8.633-6.417,16.183-12.351,22.65c-1.8,1.967-3.717,3.75-5.75,5.35c-1.6,1.167-2.399,1.767-2.399,1.8s0,0.067,0,0.1
	c-2.767,0.4-5.8,0.817-9.101,1.25c-2.967,0.4-5.3,0.883-7,1.45c0.033-0.267,0.067-0.55,0.101-0.85c0.066-0.4,0.116-0.817,0.149-1.25
	c0.601-0.733,1.384-1.817,2.351-3.25c1.399-1.9,2.733-3.067,4-3.5c1.633-0.567,4.316-1.783,8.05-3.65
	C304.883,117.367,307.083,116.167,307.85,115.6z M271.7,126.85c-0.2,0.133-0.417,0.2-0.65,0.2c-0.4,0-0.65-0.167-0.75-0.5v-0.5
	c0-0.333,0.5-2.183,1.5-5.55s1.5-6.833,1.5-10.4l-0.5-11.45c0-3.9,1-7.9,3-12c0.767-1.533,1.45-2.617,2.05-3.25
	c0.634-0.633,0.95-0.533,0.95,0.3c0,0.5-0.75,2.183-2.25,5.05c-1.5,3.4-2.25,6.633-2.25,9.7l0.5,11.75c0,2.7-0.25,5.783-0.75,9.25
	C273.45,123.65,272.667,126.117,271.7,126.85z M248.95,75.85h0.25c0,6.1,1,12.7,3,19.8c2.233,7.934,5.267,13.033,9.1,15.3
	c1.633,1.733,3.133,2.7,4.5,2.9c-0.033,0.2-0.066,0.4-0.1,0.6c-0.767,5.733-1.233,9.667-1.4,11.8c-0.167,0-0.316,0-0.45,0
	c-7.467-6.933-12.217-12.75-14.25-17.45c-1.6-3.633-2.4-9.433-2.4-17.4c0-3.633,0.05-5.683,0.15-6.15
	C247.75,83.417,248.283,80.283,248.95,75.85z M238.85,129.9c0.6,1.167,1.3,2.267,2.1,3.3c-9.867-4.4-17.767-8.767-23.7-13.1
	c-8.667-6.333-13.983-13.184-15.95-20.55c3.067,3.9,7.583,8.434,13.55,13.6c9.133,7.9,16.55,11.95,22.25,12.15
	C237.566,127,238.15,128.533,238.85,129.9z"/>
<path fill-rule="evenodd" clip-rule="evenodd" fill="#4C6F1D" d="M355.8,109c3.3-3.133,5.4-4.867,6.3-5.2v0.25
	c-5.833,11.2-15.517,20.117-29.05,26.75c-13.267,6.5-27.983,9.75-44.149,9.75c-1.5,0-3.334-0.583-5.5-1.75
	c0.6-0.5,1-0.983,1.199-1.45c0.467-0.434,0.867-1.15,1.2-2.15c1.467-0.733,3.617-1.55,6.45-2.45c3.967-1.267,7-1.9,9.1-1.9
	c16.733,0,31.2-4.217,43.4-12.65C348.083,115.9,351.767,112.833,355.8,109z M270.3,126.55c-0.566-0.1-1.167-0.183-1.8-0.25
	c0.5-1.733,0.9-4.1,1.2-7.1c0.267-2.967,0.433-8,0.5-15.1c0.066-3.934,1.267-9.383,3.6-16.35c1.367-3.733,2.316-6.433,2.851-8.1
	c0.199,0.3,0.433,0.6,0.699,0.9c1.9,2.167,5.017,3.25,9.351,3.25c0.8,0,1.55-0.05,2.25-0.15c-2.434,2.167-4.184,4.65-5.25,7.45
	c-1,2.7-1.5,6.467-1.5,11.3c0,2.167,0.333,5.5,1,10c0.666,4.533,1,7.917,1,10.15c0,1.667-0.417,4.4-1.25,8.2
	c-0.233,1.1-0.467,2.167-0.7,3.2c-0.8-0.667-1.783-1.45-2.95-2.35c-3.5-2.7-5.783-4.217-6.85-4.55
	c-0.233-0.066-0.483-0.133-0.75-0.2c0.966-0.733,1.75-3.2,2.35-7.4c0.5-3.467,0.75-6.55,0.75-9.25l-0.5-11.75
	c0-3.067,0.75-6.3,2.25-9.7c1.5-2.867,2.25-4.55,2.25-5.05c0-0.833-0.316-0.934-0.95-0.3c-0.6,0.633-1.283,1.717-2.05,3.25
	c-2,4.1-3,8.1-3,12l0.5,11.45c0,3.566-0.5,7.033-1.5,10.4s-1.5,5.217-1.5,5.55V126.55z M239.1,112.2
	c0.233-0.833,0.383-1.45,0.45-1.85v-0.05c0.633,0.733,1.7,3.05,3.2,6.95c1.3,3.333,3.117,5.867,5.45,7.6
	c1.9,1.433,4.35,2.517,7.35,3.25c1.167,0.3,3.967,0.833,8.4,1.6c7.5,1.233,13,3.533,16.5,6.9c-0.367,0-0.7,0.15-1,0.45
	c-0.2,0.133-0.4,0.3-0.601,0.5l-0.05,0.05c-0.267,0.2-0.533,0.367-0.8,0.5c-2.1,0.967-6.45,1.45-13.05,1.45
	c-11.6,0-19.384-3.733-23.35-11.2c-1.867-3.5-2.8-8.25-2.8-14.25C238.8,113.6,238.9,112.967,239.1,112.2z"/>
<path fill-rule="evenodd" clip-rule="evenodd" fill="#395D0A" d="M280.5,78.9c-0.8-0.867-1.4-1.467-1.8-1.8
	c3.7-2.1,6.85-2.75,9.45-1.95c2.033,0.667,3.05,1.667,3.05,3c0,0.633-0.101,1.067-0.3,1.3c-0.268,0.3-0.95,0.667-2.051,1.1h-4.399
	C282.783,80.183,281.467,79.633,280.5,78.9z"/>
<path fill-rule="evenodd" clip-rule="evenodd" fill="#D63510" d="M183.5,123.55c5.533-1,8.3,1.367,8.3,7.1c0,0.467-1.233,2-3.7,4.6
	c-3.6,3.7-6.483,6.717-8.65,9.05c-8.833,9.6-14.384,17.517-16.65,23.75c-4,10.733-6.3,17.45-6.9,20.15
	c-0.733,3.167-1.1,8.533-1.1,16.1c0,37.066,14.5,63.816,43.5,80.25c7.034,4,17,8.233,29.9,12.7c4.9,1.667,8.183,2.917,9.85,3.75
	c2.5,1.233,3.75,2.467,3.75,3.7c0,1.3-0.583,2.649-1.75,4.05c-1.566,1.9-3.65,2.85-6.25,2.85c-32.833,0-58.167-14.899-76-44.699
	c-6.4-10.733-11.35-22.65-14.85-35.75c-2.767-10.434-4.15-19.351-4.15-26.75c0-14.667,2.767-28.484,8.3-41.45
	c4.633-10.934,10.7-20.2,18.2-27.8C171.967,128.417,178.033,124.55,183.5,123.55z"/>
</svg>
